{
	"asset":{
		"generator":"Khronos glTF Blender I/O v4.0.43",
		"version":"2.0"
	},
	"extensionsUsed":[
		"KHR_materials_specular",
		"KHR_materials_ior"
	],
	"scene":0,
	"scenes":[
		{
			"name":"Scene",
			"nodes":[
				0
			]
		}
	],
	"nodes":[
		{
			"mesh":0,
			"name":"EyeLeft1",
			"rotation":[
				0.7071068286895752,
				0,
				0,
				0.7071068286895752
			],
			"scale":[
				0.009999999776482582,
				0.009999999776482582,
				0.009999999776482582
			]
		}
	],
	"materials":[
		{
			"doubleSided":true,
			"extensions":{
				"KHR_materials_specular":{
					"specularColorFactor":[
						2.0,
						2.0,
						2.0
					]
				},
				"KHR_materials_ior":{
					"ior":1.4500000476837158
				}
			},
			"name":"Wolf3D_Eye.002",
			"pbrMetallicRoughness":{
				"baseColorTexture":{
					"index":0
				},
				"metallicFactor":0,
				"roughnessFactor":0.858578622341156
			}
		},
		{
			"doubleSided":true,
			"extensions":{
				"KHR_materials_specular":{
					"specularColorFactor":[
						2.0,
						2.0,
						2.0
					]
				},
				"KHR_materials_ior":{
					"ior":1.4500000476837158
				}
			},
			"name":"Wolf3D_Outfit_Top.002",
			"normalTexture":{
				"index":1
			},
			"pbrMetallicRoughness":{
				"baseColorTexture":{
					"index":2
				},
				"metallicFactor":0,
				"roughnessFactor":0.5
			}
		},
		{
			"doubleSided":true,
			"extensions":{
				"KHR_materials_specular":{
					"specularColorFactor":[
						2.0,
						2.0,
						2.0
					]
				},
				"KHR_materials_ior":{
					"ior":1.4500000476837158
				}
			},
			"name":"Wolf3D_Skin.002",
			"pbrMetallicRoughness":{
				"baseColorTexture":{
					"index":3
				},
				"metallicFactor":0,
				"roughnessFactor":0.699999988079071
			}
		},
		{
			"doubleSided":true,
			"extensions":{
				"KHR_materials_specular":{
					"specularColorFactor":[
						2.0,
						2.0,
						2.0
					]
				},
				"KHR_materials_ior":{
					"ior":1.4500000476837158
				}
			},
			"name":"Wolf3D_Headwear.002",
			"normalTexture":{
				"index":4
			},
			"pbrMetallicRoughness":{
				"baseColorTexture":{
					"index":5
				},
				"metallicFactor":0,
				"roughnessFactor":0.5
			}
		},
		{
			"doubleSided":true,
			"extensions":{
				"KHR_materials_specular":{
					"specularColorFactor":[
						2.0,
						2.0,
						2.0
					]
				},
				"KHR_materials_ior":{
					"ior":1.4500000476837158
				}
			},
			"name":"Wolf3D_Outfit_Bottom.002",
			"normalTexture":{
				"index":6
			},
			"pbrMetallicRoughness":{
				"baseColorTexture":{
					"index":7
				},
				"metallicFactor":0,
				"roughnessFactor":0.5
			}
		},
		{
			"doubleSided":true,
			"extensions":{
				"KHR_materials_specular":{
					"specularColorFactor":[
						2.0,
						2.0,
						2.0
					]
				},
				"KHR_materials_ior":{
					"ior":1.4500000476837158
				}
			},
			"name":"Wolf3D_Outfit_Footwear.002",
			"normalTexture":{
				"index":8
			},
			"pbrMetallicRoughness":{
				"baseColorTexture":{
					"index":9
				},
				"metallicFactor":0,
				"roughnessFactor":0.5
			}
		},
		{
			"doubleSided":true,
			"extensions":{
				"KHR_materials_specular":{
					"specularColorFactor":[
						2.0,
						2.0,
						2.0
					]
				},
				"KHR_materials_ior":{
					"ior":1.4500000476837158
				}
			},
			"name":"Wolf3D_Teeth.002",
			"pbrMetallicRoughness":{
				"baseColorTexture":{
					"index":10
				},
				"metallicFactor":0,
				"roughnessFactor":0.858578622341156
			}
		},
		{
			"doubleSided":true,
			"extensions":{
				"KHR_materials_specular":{
					"specularColorFactor":[
						2.0,
						2.0,
						2.0
					]
				},
				"KHR_materials_ior":{
					"ior":1.4500000476837158
				}
			},
			"name":"lambert1",
			"pbrMetallicRoughness":{
				"baseColorFactor":[
					0.5,
					0.5,
					0.5,
					1
				],
				"roughnessFactor":0.5527864098548889
			}
		}
	],
	"meshes":[
		{
			"name":"Mesh",
			"primitives":[
				{
					"attributes":{
						"POSITION":0,
						"NORMAL":1,
						"TEXCOORD_0":2
					},
					"indices":3,
					"material":0
				},
				{
					"attributes":{
						"POSITION":4,
						"NORMAL":5,
						"TEXCOORD_0":6
					},
					"indices":7,
					"material":1
				},
				{
					"attributes":{
						"POSITION":8,
						"NORMAL":9,
						"TEXCOORD_0":10
					},
					"indices":11,
					"material":2
				},
				{
					"attributes":{
						"POSITION":12,
						"NORMAL":13,
						"TEXCOORD_0":14
					},
					"indices":15,
					"material":3
				},
				{
					"attributes":{
						"POSITION":16,
						"NORMAL":17,
						"TEXCOORD_0":18
					},
					"indices":19,
					"material":4
				},
				{
					"attributes":{
						"POSITION":20,
						"NORMAL":21,
						"TEXCOORD_0":22
					},
					"indices":23,
					"material":5
				},
				{
					"attributes":{
						"POSITION":24,
						"NORMAL":25,
						"TEXCOORD_0":26
					},
					"indices":27,
					"material":6
				},
				{
					"attributes":{
						"POSITION":28,
						"NORMAL":29,
						"TEXCOORD_0":30
					},
					"indices":31,
					"material":7
				}
			]
		}
	],
	"textures":[
		{
			"sampler":0,
			"source":0
		},
		{
			"sampler":0,
			"source":1
		},
		{
			"sampler":0,
			"source":2
		},
		{
			"sampler":0,
			"source":3
		},
		{
			"sampler":0,
			"source":4
		},
		{
			"sampler":0,
			"source":5
		},
		{
			"sampler":0,
			"source":6
		},
		{
			"sampler":0,
			"source":7
		},
		{
			"sampler":0,
			"source":8
		},
		{
			"sampler":0,
			"source":9
		},
		{
			"sampler":0,
			"source":10
		}
	],
	"images":[
		{
			"mimeType":"image/jpeg",
			"name":"baseColor",
			"uri":"baseColor.jpg"
		},
		{
			"mimeType":"image/jpeg",
			"name":"outfit-starwarstaurus-02-v2-m-top-N",
			"uri":"outfit-starwarstaurus-02-v2-m-top-N.jpg"
		},
		{
			"mimeType":"image/jpeg",
			"name":"outfit-starwarstaurus-02-v2-m-top-D",
			"uri":"outfit-starwarstaurus-02-v2-m-top-D.jpg"
		},
		{
			"mimeType":"image/jpeg",
			"name":"baseColor_001",
			"uri":"baseColor_001.jpg"
		},
		{
			"mimeType":"image/jpeg",
			"name":"headwear-cowboy-02-N",
			"uri":"headwear-cowboy-02-N.jpg"
		},
		{
			"mimeType":"image/jpeg",
			"name":"headwear-cowboy-02-D",
			"uri":"headwear-cowboy-02-D.jpg"
		},
		{
			"mimeType":"image/jpeg",
			"name":"outfit-starwarstaurus-02-v2-m-bottom-N",
			"uri":"outfit-starwarstaurus-02-v2-m-bottom-N.jpg"
		},
		{
			"mimeType":"image/jpeg",
			"name":"outfit-starwarstaurus-02-v2-m-bottom-D",
			"uri":"outfit-starwarstaurus-02-v2-m-bottom-D.jpg"
		},
		{
			"mimeType":"image/jpeg",
			"name":"outfit-starwarstaurus-02-v2-m-footwear-N",
			"uri":"outfit-starwarstaurus-02-v2-m-footwear-N.jpg"
		},
		{
			"mimeType":"image/jpeg",
			"name":"outfit-starwarstaurus-02-v2-m-footwear-D",
			"uri":"outfit-starwarstaurus-02-v2-m-footwear-D.jpg"
		},
		{
			"mimeType":"image/jpeg",
			"name":"Wolf3D_Teeth",
			"uri":"Wolf3D_Teeth.jpg"
		}
	],
	"accessors":[
		{
			"bufferView":0,
			"componentType":5126,
			"count":240,
			"max":[
				-11.255253791809082,
				25.249027252197266,
				-153.2318878173828
			],
			"min":[
				-21.418581008911133,
				22.699851989746094,
				-157.77796936035156
			],
			"type":"VEC3"
		},
		{
			"bufferView":1,
			"componentType":5126,
			"count":240,
			"type":"VEC3"
		},
		{
			"bufferView":2,
			"componentType":5126,
			"count":240,
			"type":"VEC2"
		},
		{
			"bufferView":3,
			"componentType":5123,
			"count":1236,
			"type":"SCALAR"
		},
		{
			"bufferView":4,
			"componentType":5126,
			"count":3007,
			"max":[
				27.570444107055664,
				58.24219512939453,
				-83.63431549072266
			],
			"min":[
				-26.453197479248047,
				-50.37515640258789,
				-149.85108947753906
			],
			"type":"VEC3"
		},
		{
			"bufferView":5,
			"componentType":5126,
			"count":3007,
			"type":"VEC3"
		},
		{
			"bufferView":6,
			"componentType":5126,
			"count":3007,
			"type":"VEC2"
		},
		{
			"bufferView":7,
			"componentType":5123,
			"count":14892,
			"type":"SCALAR"
		},
		{
			"bufferView":8,
			"componentType":5126,
			"count":2162,
			"max":[
				-2.4085450172424316,
				27.57515525817871,
				-135.55557250976562
			],
			"min":[
				-25.08406639099121,
				1.9874767065048218,
				-167.17276000976562
			],
			"type":"VEC3"
		},
		{
			"bufferView":9,
			"componentType":5126,
			"count":2162,
			"type":"VEC3"
		},
		{
			"bufferView":10,
			"componentType":5126,
			"count":2162,
			"type":"VEC2"
		},
		{
			"bufferView":11,
			"componentType":5123,
			"count":12282,
			"type":"SCALAR"
		},
		{
			"bufferView":12,
			"componentType":5126,
			"count":6206,
			"max":[
				-0.6063399314880371,
				35.971866607666016,
				-149.78526306152344
			],
			"min":[
				-33.83608627319336,
				-2.573446273803711,
				-170.78887939453125
			],
			"type":"VEC3"
		},
		{
			"bufferView":13,
			"componentType":5126,
			"count":6206,
			"type":"VEC3"
		},
		{
			"bufferView":14,
			"componentType":5126,
			"count":6206,
			"type":"VEC2"
		},
		{
			"bufferView":15,
			"componentType":5123,
			"count":7482,
			"type":"SCALAR"
		},
		{
			"bufferView":16,
			"componentType":5126,
			"count":987,
			"max":[
				14.25794792175293,
				42.853824615478516,
				-25.8570556640625
			],
			"min":[
				-33.79228591918945,
				-38.107059478759766,
				-103.13520812988281
			],
			"type":"VEC3"
		},
		{
			"bufferView":17,
			"componentType":5126,
			"count":987,
			"type":"VEC3"
		},
		{
			"bufferView":18,
			"componentType":5126,
			"count":987,
			"type":"VEC2"
		},
		{
			"bufferView":19,
			"componentType":5123,
			"count":4716,
			"type":"SCALAR"
		},
		{
			"bufferView":20,
			"componentType":5126,
			"count":240,
			"max":[
				18.906827926635742,
				54.357540130615234,
				-0.06607727706432343
			],
			"min":[
				-35.095577239990234,
				-45.90098190307617,
				-32.09870910644531
			],
			"type":"VEC3"
		},
		{
			"bufferView":21,
			"componentType":5126,
			"count":240,
			"type":"VEC3"
		},
		{
			"bufferView":22,
			"componentType":5126,
			"count":240,
			"type":"VEC2"
		},
		{
			"bufferView":23,
			"componentType":5123,
			"count":1008,
			"type":"SCALAR"
		},
		{
			"bufferView":24,
			"componentType":5126,
			"count":84,
			"max":[
				-12.68063735961914,
				25.210142135620117,
				-146.81202697753906
			],
			"min":[
				-18.307418823242188,
				18.512775421142578,
				-150.9592742919922
			],
			"type":"VEC3"
		},
		{
			"bufferView":25,
			"componentType":5126,
			"count":84,
			"type":"VEC3"
		},
		{
			"bufferView":26,
			"componentType":5126,
			"count":84,
			"type":"VEC2"
		},
		{
			"bufferView":27,
			"componentType":5123,
			"count":300,
			"type":"SCALAR"
		},
		{
			"bufferView":28,
			"componentType":5126,
			"count":5817,
			"max":[
				0.09579435735940933,
				1.833084225654602,
				0.1393132209777832
			],
			"min":[
				-0.09610727429389954,
				1.5206063985824585,
				-0.08657766133546829
			],
			"type":"VEC3"
		},
		{
			"bufferView":29,
			"componentType":5126,
			"count":5817,
			"type":"VEC3"
		},
		{
			"bufferView":30,
			"componentType":5126,
			"count":5817,
			"type":"VEC2"
		},
		{
			"bufferView":31,
			"componentType":5123,
			"count":27636,
			"type":"SCALAR"
		}
	],
	"bufferViews":[
		{
			"buffer":0,
			"byteLength":2880,
			"byteOffset":0,
			"target":34962
		},
		{
			"buffer":0,
			"byteLength":2880,
			"byteOffset":2880,
			"target":34962
		},
		{
			"buffer":0,
			"byteLength":1920,
			"byteOffset":5760,
			"target":34962
		},
		{
			"buffer":0,
			"byteLength":2472,
			"byteOffset":7680,
			"target":34963
		},
		{
			"buffer":0,
			"byteLength":36084,
			"byteOffset":10152,
			"target":34962
		},
		{
			"buffer":0,
			"byteLength":36084,
			"byteOffset":46236,
			"target":34962
		},
		{
			"buffer":0,
			"byteLength":24056,
			"byteOffset":82320,
			"target":34962
		},
		{
			"buffer":0,
			"byteLength":29784,
			"byteOffset":106376,
			"target":34963
		},
		{
			"buffer":0,
			"byteLength":25944,
			"byteOffset":136160,
			"target":34962
		},
		{
			"buffer":0,
			"byteLength":25944,
			"byteOffset":162104,
			"target":34962
		},
		{
			"buffer":0,
			"byteLength":17296,
			"byteOffset":188048,
			"target":34962
		},
		{
			"buffer":0,
			"byteLength":24564,
			"byteOffset":205344,
			"target":34963
		},
		{
			"buffer":0,
			"byteLength":74472,
			"byteOffset":229908,
			"target":34962
		},
		{
			"buffer":0,
			"byteLength":74472,
			"byteOffset":304380,
			"target":34962
		},
		{
			"buffer":0,
			"byteLength":49648,
			"byteOffset":378852,
			"target":34962
		},
		{
			"buffer":0,
			"byteLength":14964,
			"byteOffset":428500,
			"target":34963
		},
		{
			"buffer":0,
			"byteLength":11844,
			"byteOffset":443464,
			"target":34962
		},
		{
			"buffer":0,
			"byteLength":11844,
			"byteOffset":455308,
			"target":34962
		},
		{
			"buffer":0,
			"byteLength":7896,
			"byteOffset":467152,
			"target":34962
		},
		{
			"buffer":0,
			"byteLength":9432,
			"byteOffset":475048,
			"target":34963
		},
		{
			"buffer":0,
			"byteLength":2880,
			"byteOffset":484480,
			"target":34962
		},
		{
			"buffer":0,
			"byteLength":2880,
			"byteOffset":487360,
			"target":34962
		},
		{
			"buffer":0,
			"byteLength":1920,
			"byteOffset":490240,
			"target":34962
		},
		{
			"buffer":0,
			"byteLength":2016,
			"byteOffset":492160,
			"target":34963
		},
		{
			"buffer":0,
			"byteLength":1008,
			"byteOffset":494176,
			"target":34962
		},
		{
			"buffer":0,
			"byteLength":1008,
			"byteOffset":495184,
			"target":34962
		},
		{
			"buffer":0,
			"byteLength":672,
			"byteOffset":496192,
			"target":34962
		},
		{
			"buffer":0,
			"byteLength":600,
			"byteOffset":496864,
			"target":34963
		},
		{
			"buffer":0,
			"byteLength":69804,
			"byteOffset":497464,
			"target":34962
		},
		{
			"buffer":0,
			"byteLength":69804,
			"byteOffset":567268,
			"target":34962
		},
		{
			"buffer":0,
			"byteLength":46536,
			"byteOffset":637072,
			"target":34962
		},
		{
			"buffer":0,
			"byteLength":55272,
			"byteOffset":683608,
			"target":34963
		}
	],
	"samplers":[
		{
			"magFilter":9729,
			"minFilter":9987
		}
	],
	"buffers":[
		{
			"byteLength":738880,
			"uri":"untitled.bin"
		}
	]
}
