{
	"asset":{
		"generator":"Khronos glTF Blender I/O v4.0.43",
		"version":"2.0"
	},
	"scene":0,
	"scenes":[
		{
			"name":"Scene",
			"nodes":[
				0
			]
		}
	],
	"nodes":[
		{
			"mesh":0,
			"name":"Wolf3D_Body"
		}
	],
	"materials":[
		{
			"doubleSided":true,
			"name":"Wolf3D_Body.007",
			"normalTexture":{
				"index":0
			},
			"pbrMetallicRoughness":{
				"baseColorTexture":{
					"index":1
				},
				"metallicFactor":0,
				"roughnessFactor":0.5527864098548889
			}
		},
		{
			"doubleSided":true,
			"name":"Wolf3D_Eye.008",
			"pbrMetallicRoughness":{
				"baseColorTexture":{
					"index":2
				},
				"metallicFactor":0
			}
		},
		{
			"doubleSided":true,
			"name":"Wolf3D_Outfit_Bottom.008",
			"normalTexture":{
				"index":3
			},
			"pbrMetallicRoughness":{
				"baseColorTexture":{
					"index":4
				},
				"metallicFactor":0,
				"roughnessFactor":0.5
			}
		},
		{
			"doubleSided":true,
			"name":"Wolf3D_Outfit_Top.008",
			"normalTexture":{
				"index":5
			},
			"pbrMetallicRoughness":{
				"baseColorTexture":{
					"index":6
				},
				"metallicFactor":0,
				"roughnessFactor":0.5
			}
		},
		{
			"doubleSided":true,
			"name":"Wolf3D_Headwear.008",
			"normalTexture":{
				"index":7
			},
			"pbrMetallicRoughness":{
				"baseColorTexture":{
					"index":8
				},
				"metallicFactor":0,
				"roughnessFactor":0.5
			}
		},
		{
			"doubleSided":true,
			"name":"Wolf3D_Skin.008",
			"pbrMetallicRoughness":{
				"baseColorTexture":{
					"index":9
				},
				"metallicFactor":0,
				"roughnessFactor":0.699999988079071
			}
		},
		{
			"doubleSided":true,
			"name":"Wolf3D_Teeth.008",
			"pbrMetallicRoughness":{
				"baseColorTexture":{
					"index":10
				},
				"metallicFactor":0
			}
		},
		{
			"doubleSided":true,
			"name":"Wolf3D_Outfit_Footwear.008",
			"normalTexture":{
				"index":11
			},
			"pbrMetallicRoughness":{
				"baseColorTexture":{
					"index":12
				},
				"metallicFactor":0,
				"roughnessFactor":0.5
			}
		}
	],
	"meshes":[
		{
			"name":"Wolf3D_Body.005",
			"primitives":[
				{
					"attributes":{
						"POSITION":0,
						"NORMAL":1,
						"TEXCOORD_0":2
					},
					"indices":3,
					"material":0
				},
				{
					"attributes":{
						"POSITION":4,
						"NORMAL":5,
						"TEXCOORD_0":6
					},
					"indices":7,
					"material":1
				},
				{
					"attributes":{
						"POSITION":8,
						"NORMAL":9,
						"TEXCOORD_0":10
					},
					"indices":11,
					"material":2
				},
				{
					"attributes":{
						"POSITION":12,
						"NORMAL":13,
						"TEXCOORD_0":14
					},
					"indices":15,
					"material":3
				},
				{
					"attributes":{
						"POSITION":16,
						"NORMAL":17,
						"TEXCOORD_0":18
					},
					"indices":19,
					"material":4
				},
				{
					"attributes":{
						"POSITION":20,
						"NORMAL":21,
						"TEXCOORD_0":22
					},
					"indices":23,
					"material":5
				},
				{
					"attributes":{
						"POSITION":24,
						"NORMAL":25,
						"TEXCOORD_0":26
					},
					"indices":27,
					"material":6
				},
				{
					"attributes":{
						"POSITION":28,
						"NORMAL":29,
						"TEXCOORD_0":30
					},
					"indices":31,
					"material":7
				}
			]
		}
	],
	"textures":[
		{
			"sampler":0,
			"source":0
		},
		{
			"sampler":1,
			"source":1
		},
		{
			"sampler":1,
			"source":2
		},
		{
			"sampler":0,
			"source":3
		},
		{
			"sampler":0,
			"source":4
		},
		{
			"sampler":0,
			"source":5
		},
		{
			"sampler":0,
			"source":6
		},
		{
			"sampler":1,
			"source":7
		},
		{
			"sampler":1,
			"source":8
		},
		{
			"sampler":1,
			"source":9
		},
		{
			"sampler":1,
			"source":10
		},
		{
			"sampler":0,
			"source":11
		},
		{
			"sampler":0,
			"source":12
		}
	],
	"images":[
		{
			"mimeType":"image/jpeg",
			"name":"body-athletic-f-N",
			"uri":"body-athletic-f-N.jpg"
		},
		{
			"mimeType":"image/jpeg",
			"name":"baseColor.002",
			"uri":"baseColor_002.jpg"
		},
		{
			"mimeType":"image/jpeg",
			"name":"baseColor",
			"uri":"baseColor.jpg"
		},
		{
			"mimeType":"image/jpeg",
			"name":"outfit-cheer-01-v2-f-bottom-N",
			"uri":"outfit-cheer-01-v2-f-bottom-N.jpg"
		},
		{
			"mimeType":"image/jpeg",
			"name":"outfit-cheer-01-v2-f-bottom-D",
			"uri":"outfit-cheer-01-v2-f-bottom-D.jpg"
		},
		{
			"mimeType":"image/jpeg",
			"name":"outfit-cheer-01-v2-f-top-N",
			"uri":"outfit-cheer-01-v2-f-top-N.jpg"
		},
		{
			"mimeType":"image/jpeg",
			"name":"outfit-cheer-01-v2-f-top-D",
			"uri":"outfit-cheer-01-v2-f-top-D.jpg"
		},
		{
			"mimeType":"image/jpeg",
			"name":"headwear-cap-03-N",
			"uri":"headwear-cap-03-N.jpg"
		},
		{
			"mimeType":"image/jpeg",
			"name":"headwear-cap-03-D",
			"uri":"headwear-cap-03-D.jpg"
		},
		{
			"mimeType":"image/jpeg",
			"name":"baseColor.001",
			"uri":"baseColor_001.jpg"
		},
		{
			"mimeType":"image/jpeg",
			"name":"Wolf3D_Teeth",
			"uri":"Wolf3D_Teeth.jpg"
		},
		{
			"mimeType":"image/jpeg",
			"name":"outfit-cheer-01-v2-f-footwear-N",
			"uri":"outfit-cheer-01-v2-f-footwear-N.jpg"
		},
		{
			"mimeType":"image/jpeg",
			"name":"outfit-cheer-01-v2-f-footwear-D",
			"uri":"outfit-cheer-01-v2-f-footwear-D.jpg"
		}
	],
	"accessors":[
		{
			"bufferView":0,
			"componentType":5126,
			"count":1431,
			"max":[
				0.224045529961586,
				1.4092756509780884,
				0.21857891976833344
			],
			"min":[
				-0.2560271918773651,
				0.08729962259531021,
				-0.15914121270179749
			],
			"type":"VEC3"
		},
		{
			"bufferView":1,
			"componentType":5126,
			"count":1431,
			"type":"VEC3"
		},
		{
			"bufferView":2,
			"componentType":5126,
			"count":1431,
			"type":"VEC2"
		},
		{
			"bufferView":3,
			"componentType":5123,
			"count":7416,
			"type":"SCALAR"
		},
		{
			"bufferView":4,
			"componentType":5126,
			"count":240,
			"max":[
				0.10789024829864502,
				1.6246981620788574,
				0.08483390510082245
			],
			"min":[
				0.02536868490278721,
				1.57618248462677,
				-0.001189814181998372
			],
			"type":"VEC3"
		},
		{
			"bufferView":5,
			"componentType":5126,
			"count":240,
			"type":"VEC3"
		},
		{
			"bufferView":6,
			"componentType":5126,
			"count":240,
			"type":"VEC2"
		},
		{
			"bufferView":7,
			"componentType":5123,
			"count":1236,
			"type":"SCALAR"
		},
		{
			"bufferView":8,
			"componentType":5126,
			"count":1254,
			"max":[
				0.1781032383441925,
				1.1372699737548828,
				0.1874541938304901
			],
			"min":[
				-0.1409301459789276,
				0.7660911083221436,
				-0.13337849080562592
			],
			"type":"VEC3"
		},
		{
			"bufferView":9,
			"componentType":5126,
			"count":1254,
			"type":"VEC3"
		},
		{
			"bufferView":10,
			"componentType":5126,
			"count":1254,
			"type":"VEC2"
		},
		{
			"bufferView":11,
			"componentType":5123,
			"count":6378,
			"type":"SCALAR"
		},
		{
			"bufferView":12,
			"componentType":5126,
			"count":832,
			"max":[
				0.3223547041416168,
				1.5014781951904297,
				0.11754956841468811
			],
			"min":[
				-0.255702406167984,
				0.9179812669754028,
				-0.2314746230840683
			],
			"type":"VEC3"
		},
		{
			"bufferView":13,
			"componentType":5126,
			"count":832,
			"type":"VEC3"
		},
		{
			"bufferView":14,
			"componentType":5126,
			"count":832,
			"type":"VEC2"
		},
		{
			"bufferView":15,
			"componentType":5123,
			"count":2973,
			"type":"SCALAR"
		},
		{
			"bufferView":16,
			"componentType":5126,
			"count":406,
			"max":[
				0.18142127990722656,
				1.743975043296814,
				0.15580026805400848
			],
			"min":[
				-0.173833429813385,
				1.4511730670928955,
				-0.152247816324234
			],
			"type":"VEC3"
		},
		{
			"bufferView":17,
			"componentType":5126,
			"count":406,
			"type":"VEC3"
		},
		{
			"bufferView":18,
			"componentType":5126,
			"count":406,
			"type":"VEC2"
		},
		{
			"bufferView":19,
			"componentType":5123,
			"count":1920,
			"type":"SCALAR"
		},
		{
			"bufferView":20,
			"componentType":5126,
			"count":2162,
			"max":[
				0.11716079711914062,
				1.7282512187957764,
				0.0915946513414383
			],
			"min":[
				-0.09989790618419647,
				1.4261656999588013,
				-0.08870801329612732
			],
			"type":"VEC3"
		},
		{
			"bufferView":21,
			"componentType":5126,
			"count":2162,
			"type":"VEC3"
		},
		{
			"bufferView":22,
			"componentType":5126,
			"count":2162,
			"type":"VEC2"
		},
		{
			"bufferView":23,
			"componentType":5123,
			"count":12282,
			"type":"SCALAR"
		},
		{
			"bufferView":24,
			"componentType":5126,
			"count":84,
			"max":[
				0.07705283164978027,
				1.556823492050171,
				0.060889288783073425
			],
			"min":[
				0.01596975140273571,
				1.514352560043335,
				0.0005398828652687371
			],
			"type":"VEC3"
		},
		{
			"bufferView":25,
			"componentType":5126,
			"count":84,
			"type":"VEC3"
		},
		{
			"bufferView":26,
			"componentType":5126,
			"count":84,
			"type":"VEC2"
		},
		{
			"bufferView":27,
			"componentType":5123,
			"count":300,
			"type":"SCALAR"
		},
		{
			"bufferView":28,
			"componentType":5126,
			"count":970,
			"max":[
				0.23478293418884277,
				0.20013399422168732,
				0.26023000478744507
			],
			"min":[
				-0.08289191126823425,
				-0.0007797700818628073,
				-0.18900783360004425
			],
			"type":"VEC3"
		},
		{
			"bufferView":29,
			"componentType":5126,
			"count":970,
			"type":"VEC3"
		},
		{
			"bufferView":30,
			"componentType":5126,
			"count":970,
			"type":"VEC2"
		},
		{
			"bufferView":31,
			"componentType":5123,
			"count":3966,
			"type":"SCALAR"
		}
	],
	"bufferViews":[
		{
			"buffer":0,
			"byteLength":17172,
			"byteOffset":0,
			"target":34962
		},
		{
			"buffer":0,
			"byteLength":17172,
			"byteOffset":17172,
			"target":34962
		},
		{
			"buffer":0,
			"byteLength":11448,
			"byteOffset":34344,
			"target":34962
		},
		{
			"buffer":0,
			"byteLength":14832,
			"byteOffset":45792,
			"target":34963
		},
		{
			"buffer":0,
			"byteLength":2880,
			"byteOffset":60624,
			"target":34962
		},
		{
			"buffer":0,
			"byteLength":2880,
			"byteOffset":63504,
			"target":34962
		},
		{
			"buffer":0,
			"byteLength":1920,
			"byteOffset":66384,
			"target":34962
		},
		{
			"buffer":0,
			"byteLength":2472,
			"byteOffset":68304,
			"target":34963
		},
		{
			"buffer":0,
			"byteLength":15048,
			"byteOffset":70776,
			"target":34962
		},
		{
			"buffer":0,
			"byteLength":15048,
			"byteOffset":85824,
			"target":34962
		},
		{
			"buffer":0,
			"byteLength":10032,
			"byteOffset":100872,
			"target":34962
		},
		{
			"buffer":0,
			"byteLength":12756,
			"byteOffset":110904,
			"target":34963
		},
		{
			"buffer":0,
			"byteLength":9984,
			"byteOffset":123660,
			"target":34962
		},
		{
			"buffer":0,
			"byteLength":9984,
			"byteOffset":133644,
			"target":34962
		},
		{
			"buffer":0,
			"byteLength":6656,
			"byteOffset":143628,
			"target":34962
		},
		{
			"buffer":0,
			"byteLength":5946,
			"byteOffset":150284,
			"target":34963
		},
		{
			"buffer":0,
			"byteLength":4872,
			"byteOffset":156232,
			"target":34962
		},
		{
			"buffer":0,
			"byteLength":4872,
			"byteOffset":161104,
			"target":34962
		},
		{
			"buffer":0,
			"byteLength":3248,
			"byteOffset":165976,
			"target":34962
		},
		{
			"buffer":0,
			"byteLength":3840,
			"byteOffset":169224,
			"target":34963
		},
		{
			"buffer":0,
			"byteLength":25944,
			"byteOffset":173064,
			"target":34962
		},
		{
			"buffer":0,
			"byteLength":25944,
			"byteOffset":199008,
			"target":34962
		},
		{
			"buffer":0,
			"byteLength":17296,
			"byteOffset":224952,
			"target":34962
		},
		{
			"buffer":0,
			"byteLength":24564,
			"byteOffset":242248,
			"target":34963
		},
		{
			"buffer":0,
			"byteLength":1008,
			"byteOffset":266812,
			"target":34962
		},
		{
			"buffer":0,
			"byteLength":1008,
			"byteOffset":267820,
			"target":34962
		},
		{
			"buffer":0,
			"byteLength":672,
			"byteOffset":268828,
			"target":34962
		},
		{
			"buffer":0,
			"byteLength":600,
			"byteOffset":269500,
			"target":34963
		},
		{
			"buffer":0,
			"byteLength":11640,
			"byteOffset":270100,
			"target":34962
		},
		{
			"buffer":0,
			"byteLength":11640,
			"byteOffset":281740,
			"target":34962
		},
		{
			"buffer":0,
			"byteLength":7760,
			"byteOffset":293380,
			"target":34962
		},
		{
			"buffer":0,
			"byteLength":7932,
			"byteOffset":301140,
			"target":34963
		}
	],
	"samplers":[
		{
			"magFilter":9729,
			"minFilter":9987,
			"wrapS":33071,
			"wrapT":33071
		},
		{
			"magFilter":9729,
			"minFilter":9987
		}
	],
	"buffers":[
		{
			"byteLength":309072,
			"uri":"4Render.bin"
		}
	]
}
