{
	"asset":{
		"generator":"Khronos glTF Blender I/O v4.0.43",
		"version":"2.0"
	},
	"scene":0,
	"scenes":[
		{
			"name":"Scene",
			"nodes":[
				0
			]
		}
	],
	"nodes":[
		{
			"mesh":0,
			"name":"Wolf3D_Outfit_Top"
		}
	],
	"materials":[
		{
			"doubleSided":true,
			"name":"Wolf3D_Outfit_Top.002",
			"normalTexture":{
				"index":0
			},
			"pbrMetallicRoughness":{
				"baseColorTexture":{
					"index":1
				},
				"metallicFactor":0,
				"roughnessFactor":0.5
			}
		},
		{
			"doubleSided":true,
			"name":"Wolf3D_Eye.002",
			"pbrMetallicRoughness":{
				"baseColorTexture":{
					"index":2
				},
				"metallicFactor":0
			}
		},
		{
			"doubleSided":true,
			"name":"Wolf3D_Skin.002",
			"pbrMetallicRoughness":{
				"baseColorTexture":{
					"index":3
				},
				"metallicFactor":0,
				"roughnessFactor":0.699999988079071
			}
		},
		{
			"doubleSided":true,
			"name":"Wolf3D_Body.002",
			"normalTexture":{
				"index":4
			},
			"pbrMetallicRoughness":{
				"baseColorTexture":{
					"index":5
				},
				"metallicFactor":0,
				"roughnessFactor":0.6982409358024597
			}
		},
		{
			"doubleSided":true,
			"name":"Wolf3D_Outfit_Footwear.002",
			"normalTexture":{
				"index":6
			},
			"pbrMetallicRoughness":{
				"baseColorTexture":{
					"index":7
				},
				"metallicFactor":0,
				"roughnessFactor":0.5
			}
		},
		{
			"doubleSided":true,
			"name":"Wolf3D_Teeth.002",
			"pbrMetallicRoughness":{
				"baseColorTexture":{
					"index":8
				},
				"metallicFactor":0
			}
		},
		{
			"doubleSided":true,
			"name":"Wolf3D_Outfit_Bottom.002",
			"normalTexture":{
				"index":9
			},
			"pbrMetallicRoughness":{
				"baseColorTexture":{
					"index":10
				},
				"metallicFactor":0,
				"roughnessFactor":0.5
			}
		},
		{
			"doubleSided":true,
			"name":"Wolf3D_Headwear.002",
			"normalTexture":{
				"index":11,
				"scale":0
			},
			"pbrMetallicRoughness":{
				"baseColorTexture":{
					"index":12
				},
				"metallicFactor":0,
				"roughnessFactor":0.5
			}
		}
	],
	"meshes":[
		{
			"name":"Wolf3D_Outfit_Top.002",
			"primitives":[
				{
					"attributes":{
						"POSITION":0,
						"NORMAL":1,
						"TEXCOORD_0":2
					},
					"indices":3,
					"material":0
				},
				{
					"attributes":{
						"POSITION":4,
						"NORMAL":5,
						"TEXCOORD_0":6
					},
					"indices":7,
					"material":1
				},
				{
					"attributes":{
						"POSITION":8,
						"NORMAL":9,
						"TEXCOORD_0":10
					},
					"indices":11,
					"material":2
				},
				{
					"attributes":{
						"POSITION":12,
						"NORMAL":13,
						"TEXCOORD_0":14
					},
					"indices":15,
					"material":3
				},
				{
					"attributes":{
						"POSITION":16,
						"NORMAL":17,
						"TEXCOORD_0":18
					},
					"indices":19,
					"material":4
				},
				{
					"attributes":{
						"POSITION":20,
						"NORMAL":21,
						"TEXCOORD_0":22
					},
					"indices":23,
					"material":5
				},
				{
					"attributes":{
						"POSITION":24,
						"NORMAL":25,
						"TEXCOORD_0":26
					},
					"indices":27,
					"material":6
				},
				{
					"attributes":{
						"POSITION":28,
						"NORMAL":29,
						"TEXCOORD_0":30
					},
					"indices":31,
					"material":7
				}
			]
		}
	],
	"textures":[
		{
			"sampler":0,
			"source":0
		},
		{
			"sampler":0,
			"source":1
		},
		{
			"sampler":0,
			"source":2
		},
		{
			"sampler":0,
			"source":3
		},
		{
			"sampler":1,
			"source":4
		},
		{
			"sampler":0,
			"source":5
		},
		{
			"sampler":0,
			"source":6
		},
		{
			"sampler":0,
			"source":7
		},
		{
			"sampler":0,
			"source":8
		},
		{
			"sampler":0,
			"source":9
		},
		{
			"sampler":0,
			"source":10
		},
		{
			"sampler":0,
			"source":11
		},
		{
			"sampler":0,
			"source":12
		}
	],
	"images":[
		{
			"mimeType":"image/jpeg",
			"name":"hoodie-02-03-N",
			"uri":"hoodie-02-03-N.jpg"
		},
		{
			"mimeType":"image/jpeg",
			"name":"hoodie-02-03-D",
			"uri":"hoodie-02-03-D.jpg"
		},
		{
			"mimeType":"image/jpeg",
			"name":"baseColor",
			"uri":"baseColor.jpg"
		},
		{
			"mimeType":"image/jpeg",
			"name":"baseColor.001",
			"uri":"baseColor_001.jpg"
		},
		{
			"mimeType":"image/jpeg",
			"name":"body-athletic-m-N",
			"uri":"body-athletic-m-N.jpg"
		},
		{
			"mimeType":"image/jpeg",
			"name":"baseColor.002",
			"uri":"baseColor_002.jpg"
		},
		{
			"mimeType":"image/jpeg",
			"name":"sneakers-08-03-N",
			"uri":"sneakers-08-03-N.jpg"
		},
		{
			"mimeType":"image/jpeg",
			"name":"sneakers-08-03-D",
			"uri":"sneakers-08-03-D.jpg"
		},
		{
			"mimeType":"image/jpeg",
			"name":"Wolf3D_Teeth",
			"uri":"Wolf3D_Teeth.jpg"
		},
		{
			"mimeType":"image/jpeg",
			"name":"Outfit-m-backtoschool-01-bottom-N",
			"uri":"Outfit-m-backtoschool-01-bottom-N.jpg"
		},
		{
			"mimeType":"image/jpeg",
			"name":"Outfit-m-backtoschool-01-bottom-D",
			"uri":"Outfit-m-backtoschool-01-bottom-D.jpg"
		},
		{
			"mimeType":"image/jpeg",
			"name":"headwear-hashmask-03-N",
			"uri":"headwear-hashmask-03-N.jpg"
		},
		{
			"mimeType":"image/jpeg",
			"name":"headwear-hashmask-03-D",
			"uri":"headwear-hashmask-03-D.jpg"
		}
	],
	"accessors":[
		{
			"bufferView":0,
			"componentType":5126,
			"count":1510,
			"max":[
				0.26647695899009705,
				1.6116811037063599,
				0.1563674509525299
			],
			"min":[
				-0.3189266324043274,
				0.917829692363739,
				-0.18976856768131256
			],
			"type":"VEC3"
		},
		{
			"bufferView":1,
			"componentType":5126,
			"count":1510,
			"type":"VEC3"
		},
		{
			"bufferView":2,
			"componentType":5126,
			"count":1510,
			"type":"VEC2"
		},
		{
			"bufferView":3,
			"componentType":5123,
			"count":7722,
			"type":"SCALAR"
		},
		{
			"bufferView":4,
			"componentType":5126,
			"count":240,
			"max":[
				-0.02111274190247059,
				1.6971567869186401,
				0.12125805020332336
			],
			"min":[
				-0.12124872207641602,
				1.6419413089752197,
				0.08771003037691116
			],
			"type":"VEC3"
		},
		{
			"bufferView":5,
			"componentType":5126,
			"count":240,
			"type":"VEC3"
		},
		{
			"bufferView":6,
			"componentType":5126,
			"count":240,
			"type":"VEC2"
		},
		{
			"bufferView":7,
			"componentType":5123,
			"count":1236,
			"type":"SCALAR"
		},
		{
			"bufferView":8,
			"componentType":5126,
			"count":2162,
			"max":[
				0.06120673567056656,
				1.763783574104309,
				0.15754777193069458
			],
			"min":[
				-0.14329296350479126,
				1.4520528316497803,
				-0.06804261356592178
			],
			"type":"VEC3"
		},
		{
			"bufferView":9,
			"componentType":5126,
			"count":2162,
			"type":"VEC3"
		},
		{
			"bufferView":10,
			"componentType":5126,
			"count":2162,
			"type":"VEC2"
		},
		{
			"bufferView":11,
			"componentType":5123,
			"count":12282,
			"type":"SCALAR"
		},
		{
			"bufferView":12,
			"componentType":5126,
			"count":1108,
			"max":[
				0.24023380875587463,
				0.9958375096321106,
				0.19444461166858673
			],
			"min":[
				-0.2983502447605133,
				0.06422583758831024,
				-0.14499425888061523
			],
			"type":"VEC3"
		},
		{
			"bufferView":13,
			"componentType":5126,
			"count":1108,
			"type":"VEC3"
		},
		{
			"bufferView":14,
			"componentType":5126,
			"count":1108,
			"type":"VEC2"
		},
		{
			"bufferView":15,
			"componentType":5123,
			"count":5022,
			"type":"SCALAR"
		},
		{
			"bufferView":16,
			"componentType":5126,
			"count":988,
			"max":[
				0.33800092339515686,
				0.18163630366325378,
				0.18537329137325287
			],
			"min":[
				-0.38664671778678894,
				0.0003300959651824087,
				-0.17659097909927368
			],
			"type":"VEC3"
		},
		{
			"bufferView":17,
			"componentType":5126,
			"count":988,
			"type":"VEC3"
		},
		{
			"bufferView":18,
			"componentType":5126,
			"count":988,
			"type":"VEC2"
		},
		{
			"bufferView":19,
			"componentType":5123,
			"count":4014,
			"type":"SCALAR"
		},
		{
			"bufferView":20,
			"componentType":5126,
			"count":84,
			"max":[
				0.028096109628677368,
				1.6786328554153442,
				0.11850465089082718
			],
			"min":[
				-0.028096109628677368,
				1.6427654027938843,
				0.051300082355737686
			],
			"type":"VEC3"
		},
		{
			"bufferView":21,
			"componentType":5126,
			"count":84,
			"type":"VEC3"
		},
		{
			"bufferView":22,
			"componentType":5126,
			"count":84,
			"type":"VEC2"
		},
		{
			"bufferView":23,
			"componentType":5123,
			"count":300,
			"type":"SCALAR"
		},
		{
			"bufferView":24,
			"componentType":5126,
			"count":637,
			"max":[
				0.23348459601402283,
				1.0198414325714111,
				0.1693224459886551
			],
			"min":[
				-0.26594898104667664,
				0.1783096045255661,
				-0.13048586249351501
			],
			"type":"VEC3"
		},
		{
			"bufferView":25,
			"componentType":5126,
			"count":637,
			"type":"VEC3"
		},
		{
			"bufferView":26,
			"componentType":5126,
			"count":637,
			"type":"VEC2"
		},
		{
			"bufferView":27,
			"componentType":5123,
			"count":3183,
			"type":"SCALAR"
		},
		{
			"bufferView":28,
			"componentType":5126,
			"count":1722,
			"max":[
				0.10075893998146057,
				1.9029583930969238,
				0.3028058707714081
			],
			"min":[
				-0.26074132323265076,
				1.5073164701461792,
				-0.12730374932289124
			],
			"type":"VEC3"
		},
		{
			"bufferView":29,
			"componentType":5126,
			"count":1722,
			"type":"VEC3"
		},
		{
			"bufferView":30,
			"componentType":5126,
			"count":1722,
			"type":"VEC2"
		},
		{
			"bufferView":31,
			"componentType":5123,
			"count":6840,
			"type":"SCALAR"
		}
	],
	"bufferViews":[
		{
			"buffer":0,
			"byteLength":18120,
			"byteOffset":0,
			"target":34962
		},
		{
			"buffer":0,
			"byteLength":18120,
			"byteOffset":18120,
			"target":34962
		},
		{
			"buffer":0,
			"byteLength":12080,
			"byteOffset":36240,
			"target":34962
		},
		{
			"buffer":0,
			"byteLength":15444,
			"byteOffset":48320,
			"target":34963
		},
		{
			"buffer":0,
			"byteLength":2880,
			"byteOffset":63764,
			"target":34962
		},
		{
			"buffer":0,
			"byteLength":2880,
			"byteOffset":66644,
			"target":34962
		},
		{
			"buffer":0,
			"byteLength":1920,
			"byteOffset":69524,
			"target":34962
		},
		{
			"buffer":0,
			"byteLength":2472,
			"byteOffset":71444,
			"target":34963
		},
		{
			"buffer":0,
			"byteLength":25944,
			"byteOffset":73916,
			"target":34962
		},
		{
			"buffer":0,
			"byteLength":25944,
			"byteOffset":99860,
			"target":34962
		},
		{
			"buffer":0,
			"byteLength":17296,
			"byteOffset":125804,
			"target":34962
		},
		{
			"buffer":0,
			"byteLength":24564,
			"byteOffset":143100,
			"target":34963
		},
		{
			"buffer":0,
			"byteLength":13296,
			"byteOffset":167664,
			"target":34962
		},
		{
			"buffer":0,
			"byteLength":13296,
			"byteOffset":180960,
			"target":34962
		},
		{
			"buffer":0,
			"byteLength":8864,
			"byteOffset":194256,
			"target":34962
		},
		{
			"buffer":0,
			"byteLength":10044,
			"byteOffset":203120,
			"target":34963
		},
		{
			"buffer":0,
			"byteLength":11856,
			"byteOffset":213164,
			"target":34962
		},
		{
			"buffer":0,
			"byteLength":11856,
			"byteOffset":225020,
			"target":34962
		},
		{
			"buffer":0,
			"byteLength":7904,
			"byteOffset":236876,
			"target":34962
		},
		{
			"buffer":0,
			"byteLength":8028,
			"byteOffset":244780,
			"target":34963
		},
		{
			"buffer":0,
			"byteLength":1008,
			"byteOffset":252808,
			"target":34962
		},
		{
			"buffer":0,
			"byteLength":1008,
			"byteOffset":253816,
			"target":34962
		},
		{
			"buffer":0,
			"byteLength":672,
			"byteOffset":254824,
			"target":34962
		},
		{
			"buffer":0,
			"byteLength":600,
			"byteOffset":255496,
			"target":34963
		},
		{
			"buffer":0,
			"byteLength":7644,
			"byteOffset":256096,
			"target":34962
		},
		{
			"buffer":0,
			"byteLength":7644,
			"byteOffset":263740,
			"target":34962
		},
		{
			"buffer":0,
			"byteLength":5096,
			"byteOffset":271384,
			"target":34962
		},
		{
			"buffer":0,
			"byteLength":6366,
			"byteOffset":276480,
			"target":34963
		},
		{
			"buffer":0,
			"byteLength":20664,
			"byteOffset":282848,
			"target":34962
		},
		{
			"buffer":0,
			"byteLength":20664,
			"byteOffset":303512,
			"target":34962
		},
		{
			"buffer":0,
			"byteLength":13776,
			"byteOffset":324176,
			"target":34962
		},
		{
			"buffer":0,
			"byteLength":13680,
			"byteOffset":337952,
			"target":34963
		}
	],
	"samplers":[
		{
			"magFilter":9729,
			"minFilter":9987
		},
		{
			"magFilter":9729,
			"minFilter":9987,
			"wrapS":33071,
			"wrapT":33071
		}
	],
	"buffers":[
		{
			"byteLength":351632,
			"uri":"2Render.bin"
		}
	]
}
