{
	"asset":{
		"generator":"Khronos glTF Blender I/O v4.0.43",
		"version":"2.0"
	},
	"scene":0,
	"scenes":[
		{
			"name":"Scene",
			"nodes":[
				0
			]
		}
	],
	"nodes":[
		{
			"mesh":0,
			"name":"Wolf3D_Outfit_Top",
			"rotation":[
				0,
				0.9923604130744934,
				0,
				0.12337353825569153
			]
		}
	],
	"materials":[
		{
			"doubleSided":true,
			"name":"Wolf3D_Outfit_Top.007",
			"normalTexture":{
				"index":0
			},
			"pbrMetallicRoughness":{
				"baseColorTexture":{
					"index":1
				},
				"metallicFactor":0,
				"roughnessFactor":0.5
			}
		},
		{
			"doubleSided":true,
			"name":"Wolf3D_Teeth.007",
			"pbrMetallicRoughness":{
				"baseColorTexture":{
					"index":2
				},
				"metallicFactor":0
			}
		},
		{
			"doubleSided":true,
			"name":"Wolf3D_Eye.007",
			"pbrMetallicRoughness":{
				"baseColorTexture":{
					"index":3
				},
				"metallicFactor":0
			}
		},
		{
			"doubleSided":true,
			"name":"Wolf3D_Skin.007",
			"pbrMetallicRoughness":{
				"baseColorTexture":{
					"index":4
				},
				"metallicFactor":0,
				"roughnessFactor":0.699999988079071
			}
		},
		{
			"doubleSided":true,
			"name":"Wolf3D_Outfit_Bottom.007",
			"normalTexture":{
				"index":5
			},
			"pbrMetallicRoughness":{
				"baseColorTexture":{
					"index":6
				},
				"metallicFactor":0,
				"roughnessFactor":0.5
			}
		},
		{
			"doubleSided":true,
			"name":"Wolf3D_Body.006",
			"normalTexture":{
				"index":7
			},
			"pbrMetallicRoughness":{
				"baseColorTexture":{
					"index":8
				},
				"metallicFactor":0,
				"roughnessFactor":0.699999988079071
			}
		},
		{
			"doubleSided":true,
			"name":"Wolf3D_Outfit_Footwear.007",
			"normalTexture":{
				"index":9
			},
			"pbrMetallicRoughness":{
				"baseColorTexture":{
					"index":10
				},
				"metallicFactor":0,
				"roughnessFactor":0.5
			}
		},
		{
			"alphaMode":"BLEND",
			"doubleSided":true,
			"name":"Wolf3D_Headwear.007",
			"normalTexture":{
				"index":11
			},
			"pbrMetallicRoughness":{
				"baseColorTexture":{
					"index":12
				},
				"metallicFactor":0,
				"roughnessFactor":0.5
			}
		}
	],
	"meshes":[
		{
			"name":"Wolf3D_Outfit_Top.006",
			"primitives":[
				{
					"attributes":{
						"POSITION":0,
						"NORMAL":1,
						"TEXCOORD_0":2
					},
					"indices":3,
					"material":0
				},
				{
					"attributes":{
						"POSITION":4,
						"NORMAL":5,
						"TEXCOORD_0":6
					},
					"indices":7,
					"material":1
				},
				{
					"attributes":{
						"POSITION":8,
						"NORMAL":9,
						"TEXCOORD_0":10
					},
					"indices":11,
					"material":2
				},
				{
					"attributes":{
						"POSITION":12,
						"NORMAL":13,
						"TEXCOORD_0":14
					},
					"indices":15,
					"material":3
				},
				{
					"attributes":{
						"POSITION":16,
						"NORMAL":17,
						"TEXCOORD_0":18
					},
					"indices":19,
					"material":4
				},
				{
					"attributes":{
						"POSITION":20,
						"NORMAL":21,
						"TEXCOORD_0":22
					},
					"indices":23,
					"material":5
				},
				{
					"attributes":{
						"POSITION":24,
						"NORMAL":25,
						"TEXCOORD_0":26
					},
					"indices":27,
					"material":6
				},
				{
					"attributes":{
						"POSITION":28,
						"NORMAL":29,
						"TEXCOORD_0":30
					},
					"indices":31,
					"material":7
				}
			]
		}
	],
	"textures":[
		{
			"sampler":0,
			"source":0
		},
		{
			"sampler":0,
			"source":1
		},
		{
			"sampler":1,
			"source":2
		},
		{
			"sampler":1,
			"source":3
		},
		{
			"sampler":1,
			"source":4
		},
		{
			"sampler":0,
			"source":5
		},
		{
			"sampler":0,
			"source":6
		},
		{
			"sampler":0,
			"source":7
		},
		{
			"sampler":1,
			"source":8
		},
		{
			"sampler":0,
			"source":9
		},
		{
			"sampler":0,
			"source":10
		},
		{
			"sampler":1,
			"source":11
		},
		{
			"sampler":1,
			"source":12
		}
	],
	"images":[
		{
			"mimeType":"image/jpeg",
			"name":"outfit-racing-02-v2-m-top-N",
			"uri":"outfit-racing-02-v2-m-top-N.jpg"
		},
		{
			"mimeType":"image/jpeg",
			"name":"outfit-racing-02-v2-m-top-D",
			"uri":"outfit-racing-02-v2-m-top-D.jpg"
		},
		{
			"mimeType":"image/jpeg",
			"name":"Wolf3D_Teeth",
			"uri":"Wolf3D_Teeth.jpg"
		},
		{
			"mimeType":"image/jpeg",
			"name":"baseColor",
			"uri":"baseColor.jpg"
		},
		{
			"mimeType":"image/jpeg",
			"name":"baseColor_001",
			"uri":"baseColor_001.jpg"
		},
		{
			"mimeType":"image/jpeg",
			"name":"outfit-racing-02-v2-m-bottom-N",
			"uri":"outfit-racing-02-v2-m-bottom-N.jpg"
		},
		{
			"mimeType":"image/jpeg",
			"name":"outfit-racing-02-v2-m-bottom-D",
			"uri":"outfit-racing-02-v2-m-bottom-D.jpg"
		},
		{
			"mimeType":"image/jpeg",
			"name":"body-athletic-m-N",
			"uri":"body-athletic-m-N.jpg"
		},
		{
			"mimeType":"image/jpeg",
			"name":"baseColor_002",
			"uri":"baseColor_002.jpg"
		},
		{
			"mimeType":"image/jpeg",
			"name":"outfit-racing-02-v2-m-footwear-N",
			"uri":"outfit-racing-02-v2-m-footwear-N.jpg"
		},
		{
			"mimeType":"image/jpeg",
			"name":"outfit-racing-02-v2-m-footwear-D",
			"uri":"outfit-racing-02-v2-m-footwear-D.jpg"
		},
		{
			"mimeType":"image/jpeg",
			"name":"headwear-helmet-03-N",
			"uri":"headwear-helmet-03-N.jpg"
		},
		{
			"mimeType":"image/png",
			"name":"headwear-helmet-03-D",
			"uri":"headwear-helmet-03-D.png"
		}
	],
	"accessors":[
		{
			"bufferView":0,
			"componentType":5126,
			"count":2813,
			"max":[
				0.5308964252471924,
				1.5570333003997803,
				0.23432381451129913
			],
			"min":[
				-0.5491099953651428,
				1.0100704431533813,
				-0.14341633021831512
			],
			"type":"VEC3"
		},
		{
			"bufferView":1,
			"componentType":5126,
			"count":2813,
			"type":"VEC3"
		},
		{
			"bufferView":2,
			"componentType":5126,
			"count":2813,
			"type":"VEC2"
		},
		{
			"bufferView":3,
			"componentType":5123,
			"count":10728,
			"type":"SCALAR"
		},
		{
			"bufferView":4,
			"componentType":5126,
			"count":84,
			"max":[
				0.08166377991437912,
				1.6384822130203247,
				0.05675442889332771
			],
			"min":[
				0.025170620530843735,
				1.5933420658111572,
				-0.008126654662191868
			],
			"type":"VEC3"
		},
		{
			"bufferView":5,
			"componentType":5126,
			"count":84,
			"type":"VEC3"
		},
		{
			"bufferView":6,
			"componentType":5126,
			"count":84,
			"type":"VEC2"
		},
		{
			"bufferView":7,
			"componentType":5123,
			"count":300,
			"type":"SCALAR"
		},
		{
			"bufferView":8,
			"componentType":5126,
			"count":240,
			"max":[
				0.1169014498591423,
				1.7034121751785278,
				0.05532534793019295
			],
			"min":[
				0.01805737242102623,
				1.6564345359802246,
				0.014386258088052273
			],
			"type":"VEC3"
		},
		{
			"bufferView":9,
			"componentType":5126,
			"count":240,
			"type":"VEC3"
		},
		{
			"bufferView":10,
			"componentType":5126,
			"count":240,
			"type":"VEC2"
		},
		{
			"bufferView":11,
			"componentType":5123,
			"count":1236,
			"type":"SCALAR"
		},
		{
			"bufferView":12,
			"componentType":5126,
			"count":2162,
			"max":[
				0.16922980546951294,
				1.7674096822738647,
				0.20217688381671906
			],
			"min":[
				-0.04430792108178139,
				1.45466148853302,
				-0.01959482580423355
			],
			"type":"VEC3"
		},
		{
			"bufferView":13,
			"componentType":5126,
			"count":2162,
			"type":"VEC3"
		},
		{
			"bufferView":14,
			"componentType":5126,
			"count":2162,
			"type":"VEC2"
		},
		{
			"bufferView":15,
			"componentType":5123,
			"count":12282,
			"type":"SCALAR"
		},
		{
			"bufferView":16,
			"componentType":5126,
			"count":3973,
			"max":[
				0.2390826940536499,
				1.0963025093078613,
				0.23027022182941437
			],
			"min":[
				-0.33592650294303894,
				0.15171903371810913,
				-0.2616218626499176
			],
			"type":"VEC3"
		},
		{
			"bufferView":17,
			"componentType":5126,
			"count":3973,
			"type":"VEC3"
		},
		{
			"bufferView":18,
			"componentType":5126,
			"count":3973,
			"type":"VEC2"
		},
		{
			"bufferView":19,
			"componentType":5123,
			"count":14214,
			"type":"SCALAR"
		},
		{
			"bufferView":20,
			"componentType":5126,
			"count":942,
			"max":[
				0.6401524543762207,
				1.4287168979644775,
				0.007280669175088406
			],
			"min":[
				-0.5865183472633362,
				1.1037108898162842,
				-0.260238915681839
			],
			"type":"VEC3"
		},
		{
			"bufferView":21,
			"componentType":5126,
			"count":942,
			"type":"VEC3"
		},
		{
			"bufferView":22,
			"componentType":5126,
			"count":942,
			"type":"VEC2"
		},
		{
			"bufferView":23,
			"componentType":5123,
			"count":4446,
			"type":"SCALAR"
		},
		{
			"bufferView":24,
			"componentType":5126,
			"count":2002,
			"max":[
				0.2722233533859253,
				0.30341267585754395,
				0.29208239912986755
			],
			"min":[
				-0.3783649504184723,
				-0.013209939002990723,
				-0.42213907837867737
			],
			"type":"VEC3"
		},
		{
			"bufferView":25,
			"componentType":5126,
			"count":2002,
			"type":"VEC3"
		},
		{
			"bufferView":26,
			"componentType":5126,
			"count":2002,
			"type":"VEC2"
		},
		{
			"bufferView":27,
			"componentType":5123,
			"count":5844,
			"type":"SCALAR"
		},
		{
			"bufferView":28,
			"componentType":5126,
			"count":1234,
			"max":[
				0.21034938097000122,
				1.7996221780776978,
				0.25299152731895447
			],
			"min":[
				-0.03865784779191017,
				1.5351052284240723,
				-0.07279173284769058
			],
			"type":"VEC3"
		},
		{
			"bufferView":29,
			"componentType":5126,
			"count":1234,
			"type":"VEC3"
		},
		{
			"bufferView":30,
			"componentType":5126,
			"count":1234,
			"type":"VEC2"
		},
		{
			"bufferView":31,
			"componentType":5123,
			"count":4890,
			"type":"SCALAR"
		}
	],
	"bufferViews":[
		{
			"buffer":0,
			"byteLength":33756,
			"byteOffset":0,
			"target":34962
		},
		{
			"buffer":0,
			"byteLength":33756,
			"byteOffset":33756,
			"target":34962
		},
		{
			"buffer":0,
			"byteLength":22504,
			"byteOffset":67512,
			"target":34962
		},
		{
			"buffer":0,
			"byteLength":21456,
			"byteOffset":90016,
			"target":34963
		},
		{
			"buffer":0,
			"byteLength":1008,
			"byteOffset":111472,
			"target":34962
		},
		{
			"buffer":0,
			"byteLength":1008,
			"byteOffset":112480,
			"target":34962
		},
		{
			"buffer":0,
			"byteLength":672,
			"byteOffset":113488,
			"target":34962
		},
		{
			"buffer":0,
			"byteLength":600,
			"byteOffset":114160,
			"target":34963
		},
		{
			"buffer":0,
			"byteLength":2880,
			"byteOffset":114760,
			"target":34962
		},
		{
			"buffer":0,
			"byteLength":2880,
			"byteOffset":117640,
			"target":34962
		},
		{
			"buffer":0,
			"byteLength":1920,
			"byteOffset":120520,
			"target":34962
		},
		{
			"buffer":0,
			"byteLength":2472,
			"byteOffset":122440,
			"target":34963
		},
		{
			"buffer":0,
			"byteLength":25944,
			"byteOffset":124912,
			"target":34962
		},
		{
			"buffer":0,
			"byteLength":25944,
			"byteOffset":150856,
			"target":34962
		},
		{
			"buffer":0,
			"byteLength":17296,
			"byteOffset":176800,
			"target":34962
		},
		{
			"buffer":0,
			"byteLength":24564,
			"byteOffset":194096,
			"target":34963
		},
		{
			"buffer":0,
			"byteLength":47676,
			"byteOffset":218660,
			"target":34962
		},
		{
			"buffer":0,
			"byteLength":47676,
			"byteOffset":266336,
			"target":34962
		},
		{
			"buffer":0,
			"byteLength":31784,
			"byteOffset":314012,
			"target":34962
		},
		{
			"buffer":0,
			"byteLength":28428,
			"byteOffset":345796,
			"target":34963
		},
		{
			"buffer":0,
			"byteLength":11304,
			"byteOffset":374224,
			"target":34962
		},
		{
			"buffer":0,
			"byteLength":11304,
			"byteOffset":385528,
			"target":34962
		},
		{
			"buffer":0,
			"byteLength":7536,
			"byteOffset":396832,
			"target":34962
		},
		{
			"buffer":0,
			"byteLength":8892,
			"byteOffset":404368,
			"target":34963
		},
		{
			"buffer":0,
			"byteLength":24024,
			"byteOffset":413260,
			"target":34962
		},
		{
			"buffer":0,
			"byteLength":24024,
			"byteOffset":437284,
			"target":34962
		},
		{
			"buffer":0,
			"byteLength":16016,
			"byteOffset":461308,
			"target":34962
		},
		{
			"buffer":0,
			"byteLength":11688,
			"byteOffset":477324,
			"target":34963
		},
		{
			"buffer":0,
			"byteLength":14808,
			"byteOffset":489012,
			"target":34962
		},
		{
			"buffer":0,
			"byteLength":14808,
			"byteOffset":503820,
			"target":34962
		},
		{
			"buffer":0,
			"byteLength":9872,
			"byteOffset":518628,
			"target":34962
		},
		{
			"buffer":0,
			"byteLength":9780,
			"byteOffset":528500,
			"target":34963
		}
	],
	"samplers":[
		{
			"magFilter":9729,
			"minFilter":9987,
			"wrapS":33071,
			"wrapT":33071
		},
		{
			"magFilter":9729,
			"minFilter":9987
		}
	],
	"buffers":[
		{
			"byteLength":538280,
			"uri":"3Render.bin"
		}
	]
}
