{
	"asset":{
		"generator":"Khronos glTF Blender I/O v4.0.43",
		"version":"2.0"
	},
	"scene":0,
	"scenes":[
		{
			"name":"Scene",
			"nodes":[
				0
			]
		}
	],
	"nodes":[
		{
			"mesh":0,
			"name":"Wolf3D_Outfit_Top"
		}
	],
	"materials":[
		{
			"doubleSided":true,
			"name":"Wolf3D_Outfit_Top.001",
			"normalTexture":{
				"index":0
			},
			"pbrMetallicRoughness":{
				"baseColorTexture":{
					"index":1
				},
				"metallicFactor":0,
				"roughnessFactor":0.5
			}
		},
		{
			"doubleSided":true,
			"name":"Wolf3D_Skin.001",
			"pbrMetallicRoughness":{
				"baseColorTexture":{
					"index":2
				},
				"metallicFactor":0,
				"roughnessFactor":0.699999988079071
			}
		},
		{
			"doubleSided":true,
			"name":"Wolf3D_Eye.001",
			"pbrMetallicRoughness":{
				"baseColorTexture":{
					"index":3
				},
				"metallicFactor":0
			}
		},
		{
			"doubleSided":true,
			"name":"Wolf3D_Body.001",
			"normalTexture":{
				"index":4
			},
			"pbrMetallicRoughness":{
				"baseColorTexture":{
					"index":5
				},
				"metallicFactor":0,
				"roughnessFactor":0.6618773341178894
			}
		},
		{
			"doubleSided":true,
			"name":"Wolf3D_Outfit_Footwear.001",
			"normalTexture":{
				"index":6
			},
			"pbrMetallicRoughness":{
				"baseColorTexture":{
					"index":7
				},
				"metallicFactor":0,
				"roughnessFactor":0.5
			}
		},
		{
			"alphaMode":"BLEND",
			"doubleSided":true,
			"name":"Wolf3D_Glasses.001",
			"normalTexture":{
				"index":8
			},
			"pbrMetallicRoughness":{
				"baseColorTexture":{
					"index":9
				},
				"metallicFactor":0,
				"roughnessFactor":0.5
			}
		},
		{
			"doubleSided":true,
			"name":"Wolf3D_Teeth.001",
			"pbrMetallicRoughness":{
				"baseColorTexture":{
					"index":10
				},
				"metallicFactor":0
			}
		},
		{
			"doubleSided":true,
			"name":"Wolf3D_Outfit_Bottom.001",
			"normalTexture":{
				"index":11
			},
			"pbrMetallicRoughness":{
				"baseColorTexture":{
					"index":12
				},
				"metallicFactor":0,
				"roughnessFactor":0.5
			}
		},
		{
			"doubleSided":true,
			"name":"Wolf3D_Headwear.001",
			"normalTexture":{
				"index":13
			},
			"pbrMetallicRoughness":{
				"baseColorTexture":{
					"index":14
				},
				"metallicFactor":0,
				"roughnessFactor":0.5
			}
		}
	],
	"meshes":[
		{
			"name":"Wolf3D_Outfit_Top.001",
			"primitives":[
				{
					"attributes":{
						"POSITION":0,
						"NORMAL":1,
						"TEXCOORD_0":2
					},
					"indices":3,
					"material":0
				},
				{
					"attributes":{
						"POSITION":4,
						"NORMAL":5,
						"TEXCOORD_0":6
					},
					"indices":7,
					"material":1
				},
				{
					"attributes":{
						"POSITION":8,
						"NORMAL":9,
						"TEXCOORD_0":10
					},
					"indices":11,
					"material":2
				},
				{
					"attributes":{
						"POSITION":12,
						"NORMAL":13,
						"TEXCOORD_0":14
					},
					"indices":15,
					"material":3
				},
				{
					"attributes":{
						"POSITION":16,
						"NORMAL":17,
						"TEXCOORD_0":18
					},
					"indices":19,
					"material":4
				},
				{
					"attributes":{
						"POSITION":20,
						"NORMAL":21,
						"TEXCOORD_0":22
					},
					"indices":23,
					"material":5
				},
				{
					"attributes":{
						"POSITION":24,
						"NORMAL":25,
						"TEXCOORD_0":26
					},
					"indices":27,
					"material":6
				},
				{
					"attributes":{
						"POSITION":28,
						"NORMAL":29,
						"TEXCOORD_0":30
					},
					"indices":31,
					"material":7
				},
				{
					"attributes":{
						"POSITION":32,
						"NORMAL":33,
						"TEXCOORD_0":34
					},
					"indices":35,
					"material":8
				}
			]
		}
	],
	"textures":[
		{
			"sampler":0,
			"source":0
		},
		{
			"sampler":0,
			"source":1
		},
		{
			"sampler":1,
			"source":2
		},
		{
			"sampler":1,
			"source":3
		},
		{
			"sampler":1,
			"source":4
		},
		{
			"sampler":1,
			"source":5
		},
		{
			"sampler":0,
			"source":6
		},
		{
			"sampler":0,
			"source":7
		},
		{
			"sampler":1,
			"source":8
		},
		{
			"sampler":1,
			"source":9
		},
		{
			"sampler":1,
			"source":10
		},
		{
			"sampler":0,
			"source":11
		},
		{
			"sampler":0,
			"source":12
		},
		{
			"sampler":1,
			"source":13
		},
		{
			"sampler":1,
			"source":14
		}
	],
	"images":[
		{
			"mimeType":"image/jpeg",
			"name":"outfit-racing-01-v2-m-top-N",
			"uri":"outfit-racing-01-v2-m-top-N.jpg"
		},
		{
			"mimeType":"image/jpeg",
			"name":"outfit-racing-01-v2-m-top-D",
			"uri":"outfit-racing-01-v2-m-top-D.jpg"
		},
		{
			"mimeType":"image/jpeg",
			"name":"baseColor.001",
			"uri":"baseColor_001.jpg"
		},
		{
			"mimeType":"image/jpeg",
			"name":"baseColor",
			"uri":"baseColor.jpg"
		},
		{
			"mimeType":"image/jpeg",
			"name":"body-athletic-m-N",
			"uri":"body-athletic-m-N.jpg"
		},
		{
			"mimeType":"image/jpeg",
			"name":"baseColor.002",
			"uri":"baseColor_002.jpg"
		},
		{
			"mimeType":"image/jpeg",
			"name":"sneakers-07-03-N",
			"uri":"sneakers-07-03-N.jpg"
		},
		{
			"mimeType":"image/jpeg",
			"name":"sneakers-07-03-D",
			"uri":"sneakers-07-03-D.jpg"
		},
		{
			"mimeType":"image/jpeg",
			"name":"glasses-58-N",
			"uri":"glasses-58-N.jpg"
		},
		{
			"mimeType":"image/png",
			"name":"glasses-58-D",
			"uri":"glasses-58-D.png"
		},
		{
			"mimeType":"image/jpeg",
			"name":"Wolf3D_Teeth",
			"uri":"Wolf3D_Teeth.jpg"
		},
		{
			"mimeType":"image/jpeg",
			"name":"outfit-racing-01-v2-m-bottom-N",
			"uri":"outfit-racing-01-v2-m-bottom-N.jpg"
		},
		{
			"mimeType":"image/jpeg",
			"name":"outfit-racing-01-v2-m-bottom-D",
			"uri":"outfit-racing-01-v2-m-bottom-D.jpg"
		},
		{
			"mimeType":"image/jpeg",
			"name":"headwear-buckethat-03-N",
			"uri":"headwear-buckethat-03-N.jpg"
		},
		{
			"mimeType":"image/jpeg",
			"name":"headwear-buckethat-03-D",
			"uri":"headwear-buckethat-03-D.jpg"
		}
	],
	"accessors":[
		{
			"bufferView":0,
			"componentType":5126,
			"count":1430,
			"max":[
				0.16778916120529175,
				1.4958162307739258,
				0.5524525046348572
			],
			"min":[
				-0.5088602304458618,
				0.8922744989395142,
				-0.2768295109272003
			],
			"type":"VEC3"
		},
		{
			"bufferView":1,
			"componentType":5126,
			"count":1430,
			"type":"VEC3"
		},
		{
			"bufferView":2,
			"componentType":5126,
			"count":1430,
			"type":"VEC2"
		},
		{
			"bufferView":3,
			"componentType":5123,
			"count":6954,
			"type":"SCALAR"
		},
		{
			"bufferView":4,
			"componentType":5126,
			"count":2162,
			"max":[
				-0.01237307209521532,
				1.6807944774627686,
				0.26923754811286926
			],
			"min":[
				-0.22353586554527283,
				1.3486075401306152,
				0.022083690389990807
			],
			"type":"VEC3"
		},
		{
			"bufferView":5,
			"componentType":5126,
			"count":2162,
			"type":"VEC3"
		},
		{
			"bufferView":6,
			"componentType":5126,
			"count":2162,
			"type":"VEC2"
		},
		{
			"bufferView":7,
			"componentType":5123,
			"count":12282,
			"type":"SCALAR"
		},
		{
			"bufferView":8,
			"componentType":5126,
			"count":240,
			"max":[
				-0.08609479665756226,
				1.5896326303482056,
				0.24199344217777252
			],
			"min":[
				-0.18920615315437317,
				1.5413625240325928,
				0.21524952352046967
			],
			"type":"VEC3"
		},
		{
			"bufferView":9,
			"componentType":5126,
			"count":240,
			"type":"VEC3"
		},
		{
			"bufferView":10,
			"componentType":5126,
			"count":240,
			"type":"VEC2"
		},
		{
			"bufferView":11,
			"componentType":5123,
			"count":1236,
			"type":"SCALAR"
		},
		{
			"bufferView":12,
			"componentType":5126,
			"count":902,
			"max":[
				0.08222806453704834,
				1.508058786392212,
				0.6991622447967529
			],
			"min":[
				-0.6172295808792114,
				0.8433235883712769,
				-0.12448322027921677
			],
			"type":"VEC3"
		},
		{
			"bufferView":13,
			"componentType":5126,
			"count":902,
			"type":"VEC3"
		},
		{
			"bufferView":14,
			"componentType":5126,
			"count":902,
			"type":"VEC2"
		},
		{
			"bufferView":15,
			"componentType":5123,
			"count":4230,
			"type":"SCALAR"
		},
		{
			"bufferView":16,
			"componentType":5126,
			"count":744,
			"max":[
				0.1857713907957077,
				0.19868189096450806,
				0.5166687369346619
			],
			"min":[
				-0.40440747141838074,
				-0.0009861774742603302,
				-0.36433422565460205
			],
			"type":"VEC3"
		},
		{
			"bufferView":17,
			"componentType":5126,
			"count":744,
			"type":"VEC3"
		},
		{
			"bufferView":18,
			"componentType":5126,
			"count":744,
			"type":"VEC2"
		},
		{
			"bufferView":19,
			"componentType":5123,
			"count":3864,
			"type":"SCALAR"
		},
		{
			"bufferView":20,
			"componentType":5126,
			"count":342,
			"max":[
				-0.04357922449707985,
				1.603520393371582,
				0.2744104564189911
			],
			"min":[
				-0.2179039865732193,
				1.5168365240097046,
				0.10933022201061249
			],
			"type":"VEC3"
		},
		{
			"bufferView":21,
			"componentType":5126,
			"count":342,
			"type":"VEC3"
		},
		{
			"bufferView":22,
			"componentType":5126,
			"count":342,
			"type":"VEC2"
		},
		{
			"bufferView":23,
			"componentType":5123,
			"count":564,
			"type":"SCALAR"
		},
		{
			"bufferView":24,
			"componentType":5126,
			"count":84,
			"max":[
				-0.09945769608020782,
				1.5237215757369995,
				0.24508409202098846
			],
			"min":[
				-0.15525071322917938,
				1.4809924364089966,
				0.17850106954574585
			],
			"type":"VEC3"
		},
		{
			"bufferView":25,
			"componentType":5126,
			"count":84,
			"type":"VEC3"
		},
		{
			"bufferView":26,
			"componentType":5126,
			"count":84,
			"type":"VEC2"
		},
		{
			"bufferView":27,
			"componentType":5123,
			"count":300,
			"type":"SCALAR"
		},
		{
			"bufferView":28,
			"componentType":5126,
			"count":617,
			"max":[
				0.18841825425624847,
				0.9450381994247437,
				0.43057388067245483
			],
			"min":[
				-0.368237167596817,
				0.08161544799804688,
				-0.36742720007896423
			],
			"type":"VEC3"
		},
		{
			"bufferView":29,
			"componentType":5126,
			"count":617,
			"type":"VEC3"
		},
		{
			"bufferView":30,
			"componentType":5126,
			"count":617,
			"type":"VEC2"
		},
		{
			"bufferView":31,
			"componentType":5123,
			"count":3186,
			"type":"SCALAR"
		},
		{
			"bufferView":32,
			"componentType":5126,
			"count":510,
			"max":[
				-0.0011700226459652185,
				1.7025295495986938,
				0.32785412669181824
			],
			"min":[
				-0.259382039308548,
				1.4790948629379272,
				0.032189659774303436
			],
			"type":"VEC3"
		},
		{
			"bufferView":33,
			"componentType":5126,
			"count":510,
			"type":"VEC3"
		},
		{
			"bufferView":34,
			"componentType":5126,
			"count":510,
			"type":"VEC2"
		},
		{
			"bufferView":35,
			"componentType":5123,
			"count":2514,
			"type":"SCALAR"
		}
	],
	"bufferViews":[
		{
			"buffer":0,
			"byteLength":17160,
			"byteOffset":0,
			"target":34962
		},
		{
			"buffer":0,
			"byteLength":17160,
			"byteOffset":17160,
			"target":34962
		},
		{
			"buffer":0,
			"byteLength":11440,
			"byteOffset":34320,
			"target":34962
		},
		{
			"buffer":0,
			"byteLength":13908,
			"byteOffset":45760,
			"target":34963
		},
		{
			"buffer":0,
			"byteLength":25944,
			"byteOffset":59668,
			"target":34962
		},
		{
			"buffer":0,
			"byteLength":25944,
			"byteOffset":85612,
			"target":34962
		},
		{
			"buffer":0,
			"byteLength":17296,
			"byteOffset":111556,
			"target":34962
		},
		{
			"buffer":0,
			"byteLength":24564,
			"byteOffset":128852,
			"target":34963
		},
		{
			"buffer":0,
			"byteLength":2880,
			"byteOffset":153416,
			"target":34962
		},
		{
			"buffer":0,
			"byteLength":2880,
			"byteOffset":156296,
			"target":34962
		},
		{
			"buffer":0,
			"byteLength":1920,
			"byteOffset":159176,
			"target":34962
		},
		{
			"buffer":0,
			"byteLength":2472,
			"byteOffset":161096,
			"target":34963
		},
		{
			"buffer":0,
			"byteLength":10824,
			"byteOffset":163568,
			"target":34962
		},
		{
			"buffer":0,
			"byteLength":10824,
			"byteOffset":174392,
			"target":34962
		},
		{
			"buffer":0,
			"byteLength":7216,
			"byteOffset":185216,
			"target":34962
		},
		{
			"buffer":0,
			"byteLength":8460,
			"byteOffset":192432,
			"target":34963
		},
		{
			"buffer":0,
			"byteLength":8928,
			"byteOffset":200892,
			"target":34962
		},
		{
			"buffer":0,
			"byteLength":8928,
			"byteOffset":209820,
			"target":34962
		},
		{
			"buffer":0,
			"byteLength":5952,
			"byteOffset":218748,
			"target":34962
		},
		{
			"buffer":0,
			"byteLength":7728,
			"byteOffset":224700,
			"target":34963
		},
		{
			"buffer":0,
			"byteLength":4104,
			"byteOffset":232428,
			"target":34962
		},
		{
			"buffer":0,
			"byteLength":4104,
			"byteOffset":236532,
			"target":34962
		},
		{
			"buffer":0,
			"byteLength":2736,
			"byteOffset":240636,
			"target":34962
		},
		{
			"buffer":0,
			"byteLength":1128,
			"byteOffset":243372,
			"target":34963
		},
		{
			"buffer":0,
			"byteLength":1008,
			"byteOffset":244500,
			"target":34962
		},
		{
			"buffer":0,
			"byteLength":1008,
			"byteOffset":245508,
			"target":34962
		},
		{
			"buffer":0,
			"byteLength":672,
			"byteOffset":246516,
			"target":34962
		},
		{
			"buffer":0,
			"byteLength":600,
			"byteOffset":247188,
			"target":34963
		},
		{
			"buffer":0,
			"byteLength":7404,
			"byteOffset":247788,
			"target":34962
		},
		{
			"buffer":0,
			"byteLength":7404,
			"byteOffset":255192,
			"target":34962
		},
		{
			"buffer":0,
			"byteLength":4936,
			"byteOffset":262596,
			"target":34962
		},
		{
			"buffer":0,
			"byteLength":6372,
			"byteOffset":267532,
			"target":34963
		},
		{
			"buffer":0,
			"byteLength":6120,
			"byteOffset":273904,
			"target":34962
		},
		{
			"buffer":0,
			"byteLength":6120,
			"byteOffset":280024,
			"target":34962
		},
		{
			"buffer":0,
			"byteLength":4080,
			"byteOffset":286144,
			"target":34962
		},
		{
			"buffer":0,
			"byteLength":5028,
			"byteOffset":290224,
			"target":34963
		}
	],
	"samplers":[
		{
			"magFilter":9729,
			"minFilter":9987,
			"wrapS":33071,
			"wrapT":33071
		},
		{
			"magFilter":9729,
			"minFilter":9987
		}
	],
	"buffers":[
		{
			"byteLength":295252,
			"uri":"8r.bin"
		}
	]
}
